<svg xmlns="http://www.w3.org/2000/svg" viewBox="0 0 64 64">
  <defs>
    <linearGradient id="bg" x1="10" x2="54" y1="6" y2="58" gradientUnits="userSpaceOnUse">
      <stop stop-color="#1a1a1a" />
      <stop offset="0.55" stop-color="#0a0a0a" />
      <stop offset="1" stop-color="#000000" />
    </linearGradient>
    <linearGradient id="mail" x1="18" x2="47" y1="23" y2="44" gradientUnits="userSpaceOnUse">
      <stop stop-color="#f8fbff" />
      <stop offset="1" stop-color="#bfdbfe" />
    </linearGradient>
  </defs>
  <rect width="64" height="64" fill="url(#bg)" rx="18" />
  <path fill="#0f172a" fill-opacity="0.22" d="M49 21c4.4 0 8 3.6 8 8v24.5c0 1.9-2.1 3.1-3.7 2L45 50H21c-4.4 0-8-3.6-8-8V29c0-4.4 3.6-8 8-8h28Z" />
  <path fill="#dbeafe" d="M47 13c4.4 0 8 3.6 8 8v20c0 4.4-3.6 8-8 8H22l-9.3 6.2c-1.6 1-3.7-.1-3.7-2V21c0-4.4 3.6-8 8-8h30Z" />
  <rect width="30" height="21" x="17" y="22" fill="url(#mail)" rx="5" />
  <path fill="#1d4ed8" d="M19.2 24.2c.7-.7 1.8-.8 2.6-.2L32 31.5 42.2 24c.8-.6 1.9-.5 2.6.2l.4.4-10.8 8c-1.4 1-3.3 1-4.8 0l-10.8-8 .4-.4Z" />
  <path fill="#60a5fa" d="m19 40.6 8.9-8 2.2 1.6-8.8 7.8H21c-.7 0-1.4-.5-2-1.4Zm26 0-8.9-8-2.2 1.6 8.8 7.8h.3c.7 0 1.4-.5 2-1.4Z" />
  <circle cx="47" cy="19" r="6" fill="#22c55e" />
  <circle cx="47" cy="19" r="2.4" fill="#dcfce7" />
</svg>
